<svg xmlns="http://www.w3.org/2000/svg" viewBox="0 0 512 512">
  <rect width="512" height="512" rx="96" fill="#0a0a0a"/>
  <g transform="translate(256,256) scale(0.55)">
    <path d="M195.2 60.4c-6.1-6.7-15.4-9.1-23.8-6.2L12.5 104.6c-12.4 4.3-18.2 18.3-12.6 30.1l72 152c4.6 9.7 16.3 13.1 25.1 7.2l49.5-33c6.4-4.3 8.1-13.1 3.7-19.5c-4.3-6.4-13.1-8.1-19.5-3.8l-30.4 20.3L42.8 135.2l131.8-41.6L211 150.5c3.6 7.5 12.2 11 20 8l131.8-51.3l-7.4 140.1l-30.2-19.7c-6.5-4.2-15.2-2.4-19.4 4.1c-4.2 6.5-2.4 15.2 4.1 19.4l49.2 32.1c8.7 5.7 20.2 2.1 24.6-7.6l72-157.1c5.3-11.5-.4-25.1-12.4-29.4l-160-55.3c-8.4-2.9-17.7-.4-23.8 6.3L256 78.3l-60.8-17.9z" fill="#c8ff00"/>
  </g>
</svg>
